<svg width="84" height="29" viewBox="0 0 84 29" fill="none" xmlns="http://www.w3.org/2000/svg">
    <path
        d="M31.9209 18.7904C30.6601 17.745 21.1221 18.2635 20.4412 17.9328C19.8932 17.5088 21.052 10.6666 21.6134 9.68038C21.8119 9.32759 22.0262 9.28339 22.5087 9.47884C23.2699 9.83931 33.3022 9.81203 33.3022 9.81203C33.4265 10.0341 33.8491 9.3364 33.9134 9.60146C34.1216 10.2212 50.3713 10.3545 51.7554 10.4006C52.5951 10.4284 51.9154 10.8059 52.9094 10.6955C55.0263 10.489 59.5982 11.0776 61.205 10.792C62.4924 10.5522 62.7673 10.5614 63.983 10.8846C65.226 11.1825 71.8907 11.2503 72.6697 10.8145C72.8604 10.6927 73.0006 10.7486 72.9952 10.9019C72.9944 10.9338 77.6783 11.3224 77.6951 11.4435C77.7255 11.5986 77.8652 11.6804 78.0016 11.582C78.2519 11.4371 83.2662 11.1514 83.3294 11.6053C83.5266 12.8953 82.636 18.2825 82.0068 19.5706C81.3615 20.9464 78.1626 19.17 75.5107 19.868L63.3143 19.2312L60.6806 19.6056C60.3998 19.1286 59.2025 20.2159 58.5385 19.3548C58.2565 19.0114 56.1831 18.8397 55.7103 19.158C55.3017 19.4016 44.7036 18.1025 43.5793 18.9598C41.6693 18.072 33.7531 18.7112 31.9209 18.7904Z"
        fill="#FEEF38"/>
    <path
        d="M60.5158 6.23384C62.0466 7.11936 73.1318 5.85816 73.9453 6.11538C74.609 6.47203 73.6629 13.03 73.0669 14.008C72.8568 14.3574 72.6087 14.4164 72.0353 14.2708C71.127 13.992 59.4365 14.8293 59.4365 14.8293C59.2779 14.6294 58.8267 15.3236 58.7368 15.0782C58.458 14.5093 39.512 15.6986 37.8962 15.7668C36.9157 15.8082 37.6854 15.3971 36.5337 15.5815C34.0794 15.9479 28.7155 15.7614 26.8598 16.1617C25.3733 16.4919 25.052 16.506 23.6168 16.299C22.1506 16.1182 14.3793 16.593 13.4979 17.0686C13.2831 17.1994 13.1158 17.1579 13.1128 17.0119C13.1121 16.9813 7.62973 16.9938 7.60315 16.8808C7.55869 16.7369 7.39111 16.6712 7.2378 16.7746C6.9546 16.9312 1.12819 17.607 1.02766 17.1835C0.721796 15.9803 1.4408 10.8185 2.09837 9.54998C2.76892 8.19803 6.60226 9.61737 9.65142 8.74331L23.9028 8.35806L26.9501 7.79082C27.3056 8.21931 28.6364 7.09448 29.4611 7.8548C29.8098 8.15649 32.2366 8.15069 32.7683 7.81194C33.2302 7.54902 45.6581 7.91864 46.9178 7.01759C49.1972 7.70153 58.3845 6.45792 60.5158 6.23384Z"
        fill="#FEEF38"/>
    <path
        d="M16.9012 22.1106C15.438 20.452 3.18352 21.4425 2.26467 20.8631C1.61296 20.1662 3.90696 8.86891 4.73554 7.23317C5.03044 6.65092 5.31566 6.54662 5.90137 6.8954C6.87034 7.47289 18.3602 7.2849 19.6482 7.2508C19.7831 7.61363 20.3993 6.44888 20.4524 6.88423C20.5513 7.39257 25.7915 7.57804 31.2364 7.5711C36.6813 7.56416 42.3278 7.39105 43.2129 7.38877C44.2871 7.38522 43.3787 8.03575 44.6634 7.80831C47.3978 7.32383 53.2063 8.04234 55.2962 7.45841C56.9712 6.99029 57.3201 7.0043 58.853 7.43344C60.4153 7.87043 68.9757 7.56866 70.013 6.75568C70.271 6.55284 70.4442 6.62514 70.423 6.87995C70.5129 6.89708 76.3987 7.303 76.4069 7.47362C76.4306 7.72702 76.6021 7.85344 76.7868 7.6831C77.1217 7.42601 83.5868 6.65178 83.6271 7.39394C83.7422 9.51552 82.0717 18.4345 81.1481 20.6115C80.1752 22.9047 76.2551 20.1848 72.7834 21.5061C54.7887 21.2016 58.1915 21.0112 53.7679 22.0276C53.4532 21.2579 51.8227 23.1019 51.0409 21.75C50.7174 21.1911 48.0683 21.0634 47.4273 21.5986C46.88 22.0561 33.3922 20.4922 31.8608 21.9418C29.4974 20.5842 19.2645 21.9433 16.9012 22.1106Z"
        fill="#FEEF38"/>
    <path
        d="M65.5932 10.6236C67.2874 9.68978 78.1509 11.9233 78.78 11.7754C79.451 11.4671 78.7848 4.52362 78.2173 3.43593C78.0166 3.05052 77.7679 2.94751 77.1866 3.05838C76.6015 3.16984 67.6058 1.88361 64.4875 1.54949C64.3296 1.75293 63.8696 1.00738 63.7798 1.26134C63.6401 1.5567 54.079 0.948151 53.7859 0.932716C51.7307 0.825917 48.2254 0.610661 42.7908 0.515657C41.8052 0.498729 42.6044 0.901647 41.4389 0.764923C38.9538 0.47382 33.6099 0.995808 31.7284 0.714715C30.2159 0.488963 29.8949 0.491321 28.4839 0.812311C27.2571 1.09112 19.2871 1.33727 18.3495 0.938459C18.1214 0.824171 17.9607 0.884868 17.9746 1.03797C17.8754 1.0568 12.5489 1.65135 12.5364 1.76823C12.51 1.92425 12.3524 2.01202 12.188 1.92005C11.8873 1.77676 6.05397 1.75471 6.00561 2.20991C5.86673 3.50797 7.22846 8.82048 8.02191 10.0799C8.85757 11.4061 12.4308 9.48272 15.5258 10.0678C31.063 8.86405 29.3277 9.10189 32.58 9.49776C32.8911 9.01704 34.2825 10.0938 35.0367 9.26365C35.3475 8.92141 37.7304 8.79358 38.2852 9.10963C38.497 9.23049 42.3261 9.04639 42.5621 9.0398C43.7128 9.00611 51.2244 8.75753 52.2232 9.51647C54.5631 8.75614 63.1327 10.1714 65.5932 10.6236Z"
        fill="#FEEF38"/>
    <path
        d="M19.6639 28.0204C18.3935 27.0229 8.0822 26.9577 7.26602 26.5212C6.70951 26.0566 8.46818 19.3229 9.11071 18.3791C9.34157 18.0409 9.57239 18.0023 10.0546 18.2432C11.0281 18.729 19.8073 19.0417 21.2993 19.0739C21.4265 19.2985 21.8793 18.6097 21.9424 18.8758C22.2304 19.755 40.0101 19.5238 40.6916 19.5226C41.5776 19.521 40.8752 19.9132 41.9199 19.7749C44.1374 19.4812 48.9917 19.8839 50.6721 19.5007C52.0172 19.1941 52.3036 19.2033 53.6087 19.4426C54.9364 19.6863 61.9954 19.3414 62.7746 18.8222C62.97 18.6919 63.1193 18.7332 63.1253 18.8873C63.2274 18.8984 68.1131 18.9999 68.1336 19.0915C68.1778 19.2442 68.3316 19.3153 68.4683 19.2071C68.7209 19.0486 73.9989 18.3811 74.1062 18.828C74.4117 20.1015 73.9086 25.5354 73.3557 26.8728C72.7693 28.2909 69.2373 26.7675 66.4693 27.6559C50.5425 27.9047 54.5719 27.603 50.6233 28.3315C50.2956 27.8674 49.0898 29.012 48.3177 28.1902C48.0027 27.855 45.7774 27.7934 45.2797 28.1231C45.0706 28.262 42.1053 28.1022 39.0508 28.0033C35.9964 27.9045 32.8449 27.8305 32.2482 28.2722C30.4668 27.5216 23.5746 27.9303 19.6639 28.0204Z"
        fill="#FEEF38"/>
</svg>